<svg xmlns="http://www.w3.org/2000/svg" viewBox="0 0 582.49 50.25"><defs><style>.cls-1{fill:#231f20;}</style></defs><title>Asset 1</title><g id="Layer_2" data-name="Layer 2"><g id="S"><path class="cls-1" d="M12.17,2.2c7.69,0,11.92,4.35,11.92,11.27S19.86,24.63,12.17,24.63H2v16H0V2.2ZM2,22.79h9.65c6.59,0,10.37-3.25,10.37-9.32s-3.61-9.4-9.94-9.4H2Z"/><path class="cls-1" d="M32,.06h2V40.59H32Z"/><path class="cls-1" d="M51.75,41.09c-5.65,0-9.52-3.3-9.52-8.67,0-4.8,3.33-8.07,9.86-8.07h9.12v-4.3c0-5-3.22-7.31-8-7.31S46.13,15,45.48,18.61H43.53c.51-4.49,3.64-7.71,9.83-7.71,5.9,0,9.83,3.08,9.83,8.73v21h-2V35.76H61.1C60.45,37.54,57.57,41.09,51.75,41.09Zm9.46-10.3V26.13H52.12c-5.37,0-7.77,2.59-7.77,6.27,0,4.23,3.16,6.86,7.6,6.86C57,39.26,61.21,35.9,61.21,30.79Z"/><path class="cls-1" d="M81.78,40.59l-1.41,3.72c-1.56,4.13-4,5.94-7.54,5.94A10.85,10.85,0,0,1,70.4,50V48.24a13,13,0,0,0,2.34.2c2.63,0,4.66-1.58,5.71-4.49l1.1-3L68.62,11.41h2.2l9.69,27h.11l9.55-27h2.12Z"/><path class="cls-1" d="M107,10.9c7.2,0,9.68,4.61,9.68,7.71h-2c0-2.14-1.86-5.87-7.79-5.87-4.21,0-7.68,1.86-7.68,6,0,3.64,2.88,4.74,7.91,6.12s10.11,2.43,10.11,8-5,8.21-10.71,8.21c-7.6,0-10.39-4.54-10.39-8h2c.08,2.4,2.2,6.16,8.47,6.16,4.66,0,8.62-2,8.62-6.39,0-3.81-3-4.66-8.59-6.18s-9.41-3-9.41-7.88C97.2,13.78,101.27,10.9,107,10.9Z"/><path class="cls-1" d="M126.55,4.35h2v7.06H136v1.75h-7.46V34.6c0,3.56,1.5,4.55,5.2,4.55a14.12,14.12,0,0,0,2.65-.23v1.67a13.41,13.41,0,0,1-3,.28c-5.23,0-6.84-1.78-6.84-6.75v-21h-4.74V11.41h4.74Z"/><path class="cls-1" d="M150.56,41.09c-5.64,0-9.51-3.3-9.51-8.67,0-4.8,3.33-8.07,9.85-8.07H160v-4.3c0-5-3.22-7.31-8-7.31s-7.12,2.23-7.77,5.87h-1.94c.5-4.49,3.64-7.71,9.82-7.71,5.91,0,9.83,3.08,9.83,8.73v21h-2V35.76h-.12C159.26,37.54,156.38,41.09,150.56,41.09ZM160,30.79V26.13h-9.1c-5.36,0-7.77,2.59-7.77,6.27,0,4.23,3.17,6.86,7.6,6.86C155.76,39.26,160,35.9,160,30.79Z"/><path class="cls-1" d="M172.74,4.35h2v7.06h7.45v1.75h-7.45V34.6c0,3.56,1.49,4.55,5.19,4.55a14.23,14.23,0,0,0,2.66-.23v1.67a13.41,13.41,0,0,1-3,.28c-5.23,0-6.84-1.78-6.84-6.75v-21H168V11.41h4.74Z"/><path class="cls-1" d="M190.37,1.75a1.88,1.88,0,0,1,1.89,1.89,1.88,1.88,0,1,1-1.89-1.89Zm-1,9.66h2V40.59h-2Z"/><path class="cls-1" d="M223.58,23.89v4.33c0,8.36-5.14,12.87-11.86,12.87s-11.8-4.54-11.8-12.87V23.89c0-8.38,5-13,11.8-13S223.58,15.62,223.58,23.89Zm-21.69.26V28c0,7.43,4.18,11.27,9.86,11.27s9.83-3.76,9.83-11.27V24.15c0-7.46-4.27-11.41-9.86-11.41S201.89,16.64,201.89,24.15Z"/><path class="cls-1" d="M232,11.41h2v5.65h.11c.93-2.91,4-6.16,9.52-6.16,5.79,0,10,3.76,10,10.54V40.59h-2V21.66c0-5.05-3-8.89-8.3-8.89-6.27,0-9.4,4.94-9.4,10.05V40.59h-2Z"/><path class="cls-1" d="M263.73,31.35c.2,3.28,3,8.3,10.2,8.3a10.59,10.59,0,0,0,10.5-10.9c0-6.18-4.29-10.93-10.56-10.93a10.82,10.82,0,0,0-9.46,5.23h-2L265.06,2.2h18.75V4H266.7l-2.24,16.61h.06c.79-1.36,4.18-4.6,9.55-4.6,7.31,0,12.4,5.42,12.4,12.73a12.49,12.49,0,0,1-12.69,12.77c-8.58,0-12-6.07-12.08-10.14Z"/><path class="cls-1" d="M289.41,10.62h7.93l6.11,22.57h.28l6.75-22.57h7.65l-10.39,30h-8.45Z"/><path class="cls-1" d="M347.71,24.4v2.21c0,8.72-4.86,14.51-13.7,14.51s-13.73-5.79-13.73-14.49v-2.2c0-8.27,4.89-14.35,13.73-14.35S347.71,16.13,347.71,24.4Zm-19.91,0v2.32c0,4.72,1.86,8.61,6.21,8.61s6.19-3.87,6.19-8.61V24.4c0-4.88-1.9-8.56-6.19-8.56S327.8,19.54,327.8,24.4Z"/><path class="cls-1" d="M380.11,24.4v2.21c0,8.72-4.86,14.51-13.7,14.51s-13.72-5.79-13.72-14.49v-2.2c0-8.27,4.88-14.35,13.72-14.35S380.11,16.13,380.11,24.4Zm-19.91,0v2.32c0,4.72,1.86,8.61,6.21,8.61s6.19-3.87,6.19-8.61V24.4c0-4.88-1.89-8.56-6.19-8.56S360.2,19.54,360.2,24.4Z"/><path class="cls-1" d="M386.3,10.62h7.43v4.12H394a7.22,7.22,0,0,1,7-4.57,12.12,12.12,0,0,1,2.38.2v6.44a13.07,13.07,0,0,0-2.94-.26c-4.89,0-6.58,2.94-6.58,7V40.59h-7.6Z"/><path class="cls-1" d="M408.67,10.62h7.43v4.12h.31a7.22,7.22,0,0,1,7-4.57,12,12,0,0,1,2.37.2v6.44a13,13,0,0,0-2.94-.26c-4.88,0-6.58,2.94-6.58,7V40.59h-7.6Z"/><path class="cls-1" d="M438.59,41c-5.85,0-9.86-3.45-9.86-9.1,0-5.36,3.73-8.81,10.68-8.81h7.31V20.42c0-3-1.81-4.66-4.94-4.66s-4.8,1.61-5,4h-6.95c.23-5,3.45-9.63,12.09-9.63,6.89,0,12.15,3.22,12.15,10.2V40.59h-7V36.94h-.31C445.54,39.15,443,41,438.59,41Zm8.13-10.28V27.59H441c-3.28,0-4.89,1.59-4.89,3.87,0,2.8,2.37,4.16,4.86,4.16C444.18,35.62,446.72,33.67,446.72,30.76Z"/><path class="cls-1" d="M469.49,41c-5.84,0-9.86-3.45-9.86-9.1,0-5.36,3.73-8.81,10.68-8.81h7.32V20.42c0-3-1.81-4.66-4.95-4.66s-4.8,1.61-5,4h-6.94c.22-5,3.44-9.63,12.09-9.63,6.89,0,12.14,3.22,12.14,10.2V40.59h-7V36.94h-.31C476.44,39.15,473.9,41,469.49,41Zm8.14-10.28V27.59h-5.71c-3.28,0-4.88,1.59-4.88,3.87,0,2.8,2.37,4.16,4.85,4.16C475.08,35.62,477.63,33.67,477.63,30.76Z"/><path class="cls-1" d="M510.9,15h.29V0h7.45V40.59h-7.31V36H511c-1.42,3.08-4.55,5-8.65,5-7.28,0-11.46-5.42-11.46-14.12V24.32c0-8.56,4.32-14.1,11.46-14.1C506.44,10.22,509.58,12.17,510.9,15Zm-12.37,9.57v2.06c0,5.62,2.63,8.39,6.27,8.39,3.93,0,6.44-2.91,6.44-8.36V24.57c0-5.25-2.54-8.39-6.49-8.39C501.16,16.18,498.53,19,498.53,24.57Z"/><path class="cls-1" d="M530,32.42a4.4,4.4,0,1,1-4.38,4.38A4.4,4.4,0,0,1,530,32.42Z"/><path class="cls-1" d="M541.19,10.62h7.23V15h.31c1-2.06,3.7-4.86,8.7-4.86,6.1,0,10.36,3.81,10.36,11.16V40.59h-7.42V22.91c0-4.61-2.66-6.44-5.85-6.44-3.84,0-5.93,2.76-5.93,6.55V40.59h-7.4Z"/><path class="cls-1" d="M575,0h7.46V40.59H575Z"/></g></g></svg>